<?xml version="1.0" encoding="UTF-8" standalone="no"?>
<!-- Svg Vector Icons : http://www.onlinewebfonts.com/icon -->

<svg
   version="1.1"
   x="0px"
   y="0px"
   viewBox="0 0 1000 1000"
   enable-background="new 0 0 1000 1000"
   xml:space="preserve"
   id="svg40"
   sodipodi:docname="cube_top.svg"
   inkscape:version="1.1.1 (3bf5ae0d25, 2021-09-20)"
   xmlns:inkscape="http://www.inkscape.org/namespaces/inkscape"
   xmlns:sodipodi="http://sodipodi.sourceforge.net/DTD/sodipodi-0.dtd"
   xmlns="http://www.w3.org/2000/svg"
   xmlns:svg="http://www.w3.org/2000/svg"><defs
   id="defs44" /><sodipodi:namedview
   id="namedview42"
   pagecolor="#505050"
   bordercolor="#eeeeee"
   borderopacity="1"
   inkscape:pageshadow="0"
   inkscape:pageopacity="0"
   inkscape:pagecheckerboard="0"
   showgrid="false"
   inkscape:zoom="0.316"
   inkscape:cx="333.86076"
   inkscape:cy="449.36709"
   inkscape:window-width="960"
   inkscape:window-height="503"
   inkscape:window-x="960"
   inkscape:window-y="540"
   inkscape:window-maximized="0"
   inkscape:current-layer="svg40" />
<metadata
   id="metadata2"> Svg Vector Icons : http://www.onlinewebfonts.com/icon </metadata>
<g
   id="g38"><g
     id="g6"><path
       d="M932,177.8L505.5,11c-0.7-0.3-1.4-0.2-2.2-0.4c-1.1-0.3-2.2-0.6-3.4-0.6c-1.2,0-2.3,0.3-3.5,0.6c-0.7,0.2-1.4,0.1-2,0.4l-0.6,0.2l0,0L68,177.8c-7.1,2.8-10.6,10.3-9,17.5c-0.4,1.4-0.7,2.8-0.7,4.3v547.8c0,5.6,3.1,10.7,8,13.4l426.5,227.5c0.7,0.4,1.4,0.6,2.2,0.8c0.4,0.1,0.7,0.3,1.1,0.4c1.3,0.3,2.5,0.5,3.8,0.5c1.3,0,2.6-0.2,3.8-0.5c0.4-0.1,0.8-0.3,1.1-0.4c0.7-0.3,1.5-0.5,2.2-0.8l426.5-227.5c4.9-2.6,8-7.8,8-13.4V199.6c0-1.5-0.3-2.9-0.7-4.3C942.6,188.1,939.1,180.6,932,177.8z M500,380L103.2,196.6L500,41.4l396.8,155.2L500,380z M88.7,223.3l396.2,183.1v543.1L88.7,738.3V223.3z M911.3,738.3L515.1,949.6V406.4l396.2-183.1V738.3L911.3,738.3z"
       id="path4" /></g><g
     id="g8" /><g
     id="g10" /><g
     id="g12" /><g
     id="g14" /><g
     id="g16" /><g
     id="g18" /><g
     id="g20" /><g
     id="g22" /><g
     id="g24" /><g
     id="g26" /><g
     id="g28" /><g
     id="g30" /><g
     id="g32" /><g
     id="g34" /><g
     id="g36" /></g>
<path
   id="rect326"
   style="font-variation-settings:'wght' 246;fill:#e3c2ff;opacity:1;fill-opacity:0"
   d="M 88.699997,223.3 484.9,406.4 l 1e-5,543.10002 L 88.7,738.3 Z"
   sodipodi:nodetypes="ccccc" /><path
   id="rect11502"
   style="font-variation-settings:'wght' 246;opacity:1;fill:#ffc4f2;fill-opacity:1"
   d="M 500,41.4 896.8,196.6 500,380 103.2,196.6 Z"
   sodipodi:nodetypes="ccccc" /><path
   id="rect12018"
   style="font-variation-settings:'wght' 246;opacity:1;fill:#ffc2c9;fill-opacity:0"
   d="M 515.1,406.4 911.29999,223.3 911.3,738.3 515.09998,949.59999 Z"
   sodipodi:nodetypes="ccccc" /></svg>
