<?xml version="1.0" encoding="UTF-8" standalone="no"?>
<!-- Svg Vector Icons : http://www.onlinewebfonts.com/icon -->

<svg
   version="1.1"
   x="0px"
   y="0px"
   viewBox="0 0 743.77002 113.00817"
   enable-background="new 0 0 1000 1000"
   xml:space="preserve"
   id="svg215"
   sodipodi:docname="cube_logo.svg"
   width="743.77002"
   height="113.00817"
   inkscape:version="1.1.1 (3bf5ae0d25, 2021-09-20)"
   xmlns:inkscape="http://www.inkscape.org/namespaces/inkscape"
   xmlns:sodipodi="http://sodipodi.sourceforge.net/DTD/sodipodi-0.dtd"
   xmlns="http://www.w3.org/2000/svg"
   xmlns:svg="http://www.w3.org/2000/svg"><defs
   id="defs219" /><sodipodi:namedview
   id="namedview217"
   pagecolor="#505050"
   bordercolor="#eeeeee"
   borderopacity="1"
   inkscape:pageshadow="0"
   inkscape:pageopacity="0"
   inkscape:pagecheckerboard="0"
   showgrid="false"
   fit-margin-top="0"
   fit-margin-left="0"
   fit-margin-right="0"
   fit-margin-bottom="0"
   inkscape:zoom="0.7071068"
   inkscape:cx="144.95689"
   inkscape:cy="46.669046"
   inkscape:window-width="960"
   inkscape:window-height="503"
   inkscape:window-x="960"
   inkscape:window-y="540"
   inkscape:window-maximized="0"
   inkscape:current-layer="svg215"
   inkscape:snap-center="true"
   inkscape:snap-text-baseline="true"
   inkscape:snap-grids="true"
   showguides="true"
   inkscape:guide-bbox="true"
   inkscape:snap-page="false"
   inkscape:object-nodes="false"
   inkscape:snap-object-midpoints="true"
   inkscape:snap-bbox="true"
   inkscape:bbox-paths="false"
   inkscape:bbox-nodes="false"><sodipodi:guide
     position="118.93394,124.23799"
     orientation="1,0"
     id="guide4442" /><sodipodi:guide
     position="17.552603,158.92756"
     orientation="0,0"
     id="guide4668" /><sodipodi:guide
     position="17.552603,158.92756"
     orientation="37.400001,-96.422103"
     id="guide4670" /><sodipodi:guide
     position="-81.066057,116.63368"
     orientation="122.97551,0"
     id="guide4672" /><sodipodi:guide
     position="-79.254463,-9.3499963"
     orientation="51.071429,96.580618"
     id="guide4674" /><sodipodi:guide
     position="118.93394,-6.3418333"
     orientation="-122.97551,0"
     id="guide4678" /><sodipodi:guide
     position="-70.898484,117.30715"
     orientation="-34.840817,89.855074"
     id="guide4682" /><sodipodi:guide
     position="15.537205,70.209185"
     orientation="121.92041,0"
     id="guide4690" /><sodipodi:guide
     position="15.537205,-51.711221"
     orientation="-47.412246,-89.719205"
     id="guide4692" /><sodipodi:guide
     position="-74.181999,-4.2989753"
     orientation="-115.61225,0"
     id="guide4694" /><sodipodi:guide
     position="22.375972,-51.73367"
     orientation="-121.94286,0"
     id="guide4698" /><sodipodi:guide
     position="112.09518,111.31328"
     orientation="115.61225,2.8421709e-14"
     id="guide4702" /><sodipodi:guide
     position="17.552603,158.92756"
     orientation="0,0"
     id="guide4901" /><sodipodi:guide
     position="-79.254463,-9.3499963"
     orientation="51.071429,96.580618"
     id="guide4907" /><sodipodi:guide
     position="118.93394,-6.3418333"
     orientation="-122.97551,0"
     id="guide4911" /><sodipodi:guide
     position="-70.898484,117.30715"
     orientation="-34.840817,89.855074"
     id="guide4915" /><sodipodi:guide
     position="15.537205,70.209185"
     orientation="121.92041,0"
     id="guide4923" /><sodipodi:guide
     position="15.537205,-51.711221"
     orientation="-47.412246,-89.719205"
     id="guide4925" /><sodipodi:guide
     position="22.375972,-51.73367"
     orientation="-121.94286,0"
     id="guide4931" /><sodipodi:guide
     position="118.93394,113.3823"
     orientation="64.185349,0"
     id="guide4937" /><sodipodi:guide
     position="125.7727,49.196946"
     orientation="-64.185349,0"
     id="guide4941" /><sodipodi:guide
     position="-70.898484,117.30715"
     orientation="0,-1"
     id="guide583" /><sodipodi:guide
     position="-74.181999,-4.2989753"
     orientation="0,-1"
     id="guide585" /><sodipodi:guide
     position="231.43394,102.94695"
     orientation="1,0"
     id="guide587" /><sodipodi:guide
     position="129.19208,56.504085"
     orientation="0,-1"
     id="guide715" /><sodipodi:guide
     position="132.61146,-0.32107529"
     orientation="1,0"
     id="guide1031" /></sodipodi:namedview>
<metadata
   id="metadata177"> Svg Vector Icons : http://www.onlinewebfonts.com/icon </metadata>
<g
   id="g213"
   transform="matrix(0.11632099,0,0,0.11531446,-6.7815137,-1.1531446)"
   style="fill:#000000"><g
     id="g181"
     style="fill:#000000"><path
       d="M 932,177.8 505.5,11 c -0.7,-0.3 -1.4,-0.2 -2.2,-0.4 -1.1,-0.3 -2.2,-0.6 -3.4,-0.6 -1.2,0 -2.3,0.3 -3.5,0.6 -0.7,0.2 -1.4,0.1 -2,0.4 l -0.6,0.2 v 0 L 68,177.8 c -7.1,2.8 -10.6,10.3 -9,17.5 -0.4,1.4 -0.7,2.8 -0.7,4.3 v 547.8 c 0,5.6 3.1,10.7 8,13.4 l 426.5,227.5 c 0.7,0.4 1.4,0.6 2.2,0.8 0.4,0.1 0.7,0.3 1.1,0.4 1.3,0.3 2.5,0.5 3.8,0.5 1.3,0 2.6,-0.2 3.8,-0.5 0.4,-0.1 0.8,-0.3 1.1,-0.4 0.7,-0.3 1.5,-0.5 2.2,-0.8 L 933.5,760.8 c 4.9,-2.6 8,-7.8 8,-13.4 V 199.6 c 0,-1.5 -0.3,-2.9 -0.7,-4.3 1.8,-7.2 -1.7,-14.7 -8.8,-17.5 z M 500,380 103.2,196.6 500,41.4 896.8,196.6 Z M 88.7,223.3 484.9,406.4 V 949.5 L 88.7,738.3 Z m 822.6,515 -396.2,211.3 V 406.4 L 911.3,223.3 Z"
       id="path6555"
       style="fill:#000000" /></g><g
     id="g183"
     style="fill:#000000" /><g
     id="g185"
     style="fill:#000000" /><g
     id="g187"
     style="fill:#000000" /><g
     id="g189"
     style="fill:#000000" /><g
     id="g191"
     style="fill:#000000" /><g
     id="g193"
     style="fill:#000000" /><g
     id="g195"
     style="fill:#000000" /><g
     id="g197"
     style="fill:#000000" /><g
     id="g199"
     style="fill:#000000" /><g
     id="g201"
     style="fill:#000000" /><g
     id="g203"
     style="fill:#000000" /><g
     id="g205"
     style="fill:#000000" /><g
     id="g207"
     style="fill:#000000" /><g
     id="g209"
     style="fill:#000000" /><g
     id="g211"
     style="fill:#000000" /></g>
<g
   aria-label="PRODUCT"
   id="text3349"
   style="font-size:133.333px;line-height:1.25;font-family:Nunito;-inkscape-font-specification:'Nunito, @wght=246';font-variation-settings:'wght' 246"
   transform="translate(-81.066058,-46.188775)"><path
     d="m 210.30542,150.49273 q -1.73332,0 -2.66666,-0.93333 -0.79999,-0.93333 -0.79999,-2.53333 V 59.292965 q 0,-1.866662 0.93333,-2.66666 0.93333,-0.933331 2.66666,-0.933331 h 31.06659 q 14.93329,0 22.79994,7.199982 7.99998,7.066648 7.99998,20.266614 0,13.066634 -7.99998,20.26662 -7.86665,7.06664 -22.79994,7.06664 h -27.8666 v 36.53324 q 0,1.6 -0.8,2.53333 -0.8,0.93333 -2.53333,0.93333 z m 3.33333,-45.99988 h 27.4666 q 12.1333,0 18.13328,-5.466653 5.99999,-5.466653 5.99999,-15.866627 0,-10.533306 -5.99999,-15.866626 -5.99998,-5.466652 -18.13328,-5.466652 h -27.4666 z"
     id="path698" /><path
     d="m 292.97174,150.49273 q -1.73333,0 -2.66666,-0.93333 -0.8,-0.93333 -0.8,-2.53333 V 59.292965 q 0,-1.866662 0.93333,-2.66666 0.93333,-0.933331 2.66666,-0.933331 h 31.06659 q 14.93329,0 22.79994,6.933316 7.99998,6.799982 7.99998,19.466617 0,8.266645 -3.73332,14.133297 -3.6,5.866656 -10.53331,8.933306 -6.79998,2.93333 -16.53329,2.93333 l 1.46666,-1.6 h 1.46666 q 5.06666,0 8.79998,2.66666 3.73333,2.66666 6.93332,8.66665 l 14.66663,27.4666 q 0.79999,1.19999 0.66666,2.53332 0,1.2 -0.8,1.86666 -0.66666,0.8 -1.86666,0.8 -1.46666,0 -2.39999,-0.66666 -0.8,-0.66667 -1.46667,-1.86667 l -15.33329,-28.39992 q -3.59999,-6.66665 -7.99998,-8.79998 -4.39999,-2.26666 -11.86664,-2.26666 h -20.13328 v 38.53323 q 0,1.6 -0.8,2.53333 -0.79999,0.93333 -2.53332,0.93333 z m 3.33332,-47.99988 h 27.0666 q 12.39997,0 18.39995,-5.066649 6.13332,-5.199987 6.13332,-15.333294 0,-9.999975 -6.13332,-15.066629 -5.99998,-5.199986 -18.39995,-5.199986 h -27.0666 z"
     id="path700" /><path
     d="m 414.17123,150.7594 q -12.79997,0 -22.13327,-5.86665 -9.19998,-5.86666 -14.26664,-16.66663 -5.06665,-10.79997 -5.06665,-25.59993 0,-11.199974 2.79999,-19.999951 2.8,-8.933311 8.13332,-15.066629 5.46665,-6.26665 13.06663,-9.599975 7.73331,-3.333325 17.46662,-3.333325 12.9333,0 22.26661,5.866652 9.33331,5.733318 14.26663,16.533291 5.06666,10.666639 5.06666,25.466597 0,11.19998 -2.93333,20.13329 -2.79999,8.93331 -8.26665,15.19996 -5.33332,6.26665 -13.06663,9.59997 -7.73331,3.33333 -17.33329,3.33333 z m 0,-6.39999 q 10.93331,0 18.53329,-4.79998 7.73331,-4.93332 11.7333,-14.26663 4.13332,-9.33331 4.13332,-22.66661 0,-19.866618 -8.93331,-30.666591 -8.93331,-10.933305 -25.4666,-10.933305 -10.79997,0 -18.53328,4.93332 -7.59998,4.799988 -11.73331,14.133298 -3.99999,9.333309 -3.99999,22.533278 0,19.73328 8.93331,30.79992 9.06665,10.9333 25.33327,10.9333 z"
     id="path702" /><path
     d="m 481.10429,149.69273 q -1.99999,0 -3.06666,-0.93333 -0.93333,-1.06666 -0.93333,-3.06666 V 59.692964 q 0,-1.999995 0.93333,-2.933326 1.06667,-1.066664 3.06666,-1.066664 h 25.59993 q 22.26661,0 34.26658,11.999969 11.99997,11.866637 11.99997,34.933247 0,11.46663 -3.06666,20.26661 -3.06665,8.79998 -9.06664,14.79996 -5.86665,5.86666 -14.5333,8.93331 -8.53331,3.06666 -19.59995,3.06666 z m 2.79999,-6.13331 h 22.13328 q 9.99997,0 17.33329,-2.53333 7.46665,-2.66666 12.39997,-7.73331 5.06665,-5.06666 7.46664,-12.79997 2.53333,-7.73332 2.53333,-17.86662 0,-20.39995 -9.99997,-30.533258 -9.86664,-10.26664 -29.73326,-10.26664 h -22.13328 z"
     id="path704" /><path
     d="m 609.9037,150.7594 q -8.93331,0 -15.73329,-2.4 -6.79998,-2.39999 -11.3333,-7.06664 -4.53333,-4.79999 -6.93332,-11.73331 -2.26666,-7.06665 -2.26666,-16.26662 V 58.359634 q 0,-1.733329 0.8,-2.533327 0.93333,-0.933331 2.66666,-0.933331 1.59999,0 2.39999,0.933331 0.93333,0.799998 0.93333,2.533327 v 54.266526 q 0,15.99996 7.46665,23.86661 7.46665,7.86664 21.99994,7.86664 14.66663,0 21.99995,-7.86664 7.46664,-7.86665 7.46664,-23.86661 V 58.359634 q 0,-1.733329 0.8,-2.533327 0.93333,-0.933331 2.53333,-0.933331 1.73333,0 2.53333,0.933331 0.93333,0.799998 0.93333,2.533327 v 54.933196 q 0,12.1333 -4.13333,20.53328 -4.13332,8.39998 -12.26663,12.66663 -7.99998,4.26666 -19.86662,4.26666 z"
     id="path706" /><path
     d="m 709.23654,150.7594 q -13.46664,0 -22.93328,-5.73332 -9.33331,-5.86665 -14.39996,-16.66663 -5.06666,-10.79997 -5.06666,-25.73326 0,-11.199974 2.8,-19.999951 2.79999,-8.933311 8.26664,-15.066629 5.46666,-6.26665 13.3333,-9.599975 7.99998,-3.333325 17.99996,-3.333325 8.79997,0 16.53329,2.66666 7.73331,2.66666 13.19996,7.866646 1.06667,0.933331 1.33333,2.133328 0.4,1.199997 0,2.133328 -0.26666,0.933331 -1.06666,1.599996 -0.66667,0.533332 -1.86666,0.533332 -1.06667,-0.133333 -2.26666,-1.199997 -5.19999,-4.666655 -11.73331,-6.933315 -6.39998,-2.399994 -14.26663,-2.399994 -11.19997,0 -19.06661,4.93332 -7.86665,4.933321 -11.99997,14.266631 -3.99999,9.199976 -3.99999,22.399945 0,13.3333 3.99999,22.66661 4.13332,9.19997 11.99997,14.13329 7.86664,4.93332 19.06661,4.93332 7.73332,0 14.1333,-2.39999 6.53332,-2.39999 11.86664,-7.06665 1.33333,-0.93333 2.39999,-0.93333 1.06666,-0.13333 1.73333,0.53333 0.8,0.53333 1.2,1.46667 0.4,0.93333 0.13333,1.99999 -0.13333,1.06666 -1.33333,2 -5.73332,5.33332 -13.3333,8.13331 -7.59998,2.66666 -16.66662,2.66666 z"
     id="path708" /><path
     d="m 785.10287,150.49273 q -1.6,0 -2.53333,-0.93333 -0.93333,-0.93333 -0.93333,-2.53333 V 61.826292 h -32.93325 q -1.46666,0 -2.39999,-0.799998 -0.93333,-0.933331 -0.93333,-2.266661 0,-1.466663 0.93333,-2.266661 0.93333,-0.799998 2.39999,-0.799998 h 72.66648 q 1.73333,0 2.53333,0.799998 0.93333,0.799998 0.93333,2.266661 0,1.466663 -0.93333,2.266661 -0.8,0.799998 -2.53333,0.799998 H 788.4362 v 85.199778 q 0,1.6 -0.8,2.53333 -0.8,0.93333 -2.53333,0.93333 z"
     id="path710" /></g></svg>
